{
  "accessors": [
    {
      "bufferView": 0,
      "componentType": 5126,
      "count": 329724,
      "max": [8236.015625, 6627.412109375, 685.5860595703125],
      "min": [5259.515625, 3651.75390625, -2239.87548828125],
      "type": "VEC3"
    },
    { "bufferView": 1, "componentType": 5126, "count": 329724, "type": "VEC3" },
    { "bufferView": 2, "componentType": 5126, "count": 329724, "type": "VEC2" },
    {
      "bufferView": 3,
      "componentType": 5125,
      "count": 329724,
      "type": "SCALAR"
    },
    {
      "bufferView": 4,
      "componentType": 5126,
      "count": 7200,
      "max": [5503.921875, 5677.18115234375, 1148.3924560546875],
      "min": [4641.7890625, 4813.7041015625, 175.5885467529297],
      "type": "VEC3"
    },
    { "bufferView": 5, "componentType": 5126, "count": 7200, "type": "VEC3" },
    { "bufferView": 6, "componentType": 5126, "count": 7200, "type": "VEC2" },
    { "bufferView": 7, "componentType": 5125, "count": 7200, "type": "SCALAR" },
    {
      "bufferView": 8,
      "componentType": 5126,
      "count": 15300,
      "max": [5746.75, 5522.65283203125, 597.6004028320313],
      "min": [4634.60498046875, 4815.51953125, -874.9158325195313],
      "type": "VEC3"
    },
    { "bufferView": 9, "componentType": 5126, "count": 15300, "type": "VEC3" },
    { "bufferView": 10, "componentType": 5126, "count": 15300, "type": "VEC2" },
    {
      "bufferView": 11,
      "componentType": 5125,
      "count": 15300,
      "type": "SCALAR"
    },
    {
      "bufferView": 12,
      "componentType": 5126,
      "count": 7200,
      "max": [8858.341796875, 4509.72314453125, -732.143310546875],
      "min": [7996.20703125, 3566.59130859375, -1596.2132568359375],
      "type": "VEC3"
    },
    { "bufferView": 13, "componentType": 5126, "count": 7200, "type": "VEC3" },
    { "bufferView": 14, "componentType": 5126, "count": 7200, "type": "VEC2" },
    {
      "bufferView": 15,
      "componentType": 5125,
      "count": 7200,
      "type": "SCALAR"
    },
    {
      "bufferView": 16,
      "componentType": 5126,
      "count": 15300,
      "max": [8865.5244140625, 5442.4794921875, -245.4268798828125],
      "min": [7753.38134765625, 4021.84912109375, -1326.2257080078125],
      "type": "VEC3"
    },
    { "bufferView": 17, "componentType": 5126, "count": 15300, "type": "VEC3" },
    { "bufferView": 18, "componentType": 5126, "count": 15300, "type": "VEC2" },
    {
      "bufferView": 19,
      "componentType": 5125,
      "count": 15300,
      "type": "SCALAR"
    },
    {
      "bufferView": 20,
      "componentType": 5126,
      "count": 22638,
      "max": [6619.06884765625, 4203.17578125, 373.991943359375],
      "min": [6322.33740234375, 3857.838134765625, 34.84063720703125],
      "type": "VEC3"
    },
    { "bufferView": 21, "componentType": 5126, "count": 22638, "type": "VEC3" },
    { "bufferView": 22, "componentType": 5126, "count": 22638, "type": "VEC2" },
    {
      "bufferView": 23,
      "componentType": 5125,
      "count": 22638,
      "type": "SCALAR"
    },
    {
      "bufferView": 24,
      "componentType": 5126,
      "count": 22638,
      "max": [7074.18408203125, 4173.0791015625, 396.020751953125],
      "min": [6777.45263671875, 3830.197998046875, 53.325138092041016],
      "type": "VEC3"
    },
    { "bufferView": 25, "componentType": 5126, "count": 22638, "type": "VEC3" },
    { "bufferView": 26, "componentType": 5126, "count": 22638, "type": "VEC2" },
    {
      "bufferView": 27,
      "componentType": 5125,
      "count": 22638,
      "type": "SCALAR"
    },
    {
      "bufferView": 28,
      "componentType": 5126,
      "count": 63984,
      "max": [7231.5224609375, 3843.865234375, 55.07981872558594],
      "min": [6474.7431640625, 3573.421875, -420.18475341796875],
      "type": "VEC3"
    },
    { "bufferView": 29, "componentType": 5126, "count": 63984, "type": "VEC3" },
    { "bufferView": 30, "componentType": 5126, "count": 63984, "type": "VEC2" },
    {
      "bufferView": 31,
      "componentType": 5125,
      "count": 63984,
      "type": "SCALAR"
    }
  ],
  "asset": { "generator": "Luxion KeyShot", "version": "2.0" },
  "bufferViews": [
    { "buffer": 0, "byteLength": 3956688, "byteOffset": 0, "byteStride": 12 },
    {
      "buffer": 0,
      "byteLength": 3956688,
      "byteOffset": 3956688,
      "byteStride": 12
    },
    {
      "buffer": 0,
      "byteLength": 2637792,
      "byteOffset": 7913376,
      "byteStride": 8
    },
    { "buffer": 0, "byteLength": 1318896, "byteOffset": 10551168 },
    {
      "buffer": 0,
      "byteLength": 86400,
      "byteOffset": 11870064,
      "byteStride": 12
    },
    {
      "buffer": 0,
      "byteLength": 86400,
      "byteOffset": 11956464,
      "byteStride": 12
    },
    {
      "buffer": 0,
      "byteLength": 57600,
      "byteOffset": 12042864,
      "byteStride": 8
    },
    { "buffer": 0, "byteLength": 28800, "byteOffset": 12100464 },
    {
      "buffer": 0,
      "byteLength": 183600,
      "byteOffset": 12129264,
      "byteStride": 12
    },
    {
      "buffer": 0,
      "byteLength": 183600,
      "byteOffset": 12312864,
      "byteStride": 12
    },
    {
      "buffer": 0,
      "byteLength": 122400,
      "byteOffset": 12496464,
      "byteStride": 8
    },
    { "buffer": 0, "byteLength": 61200, "byteOffset": 12618864 },
    {
      "buffer": 0,
      "byteLength": 86400,
      "byteOffset": 12680064,
      "byteStride": 12
    },
    {
      "buffer": 0,
      "byteLength": 86400,
      "byteOffset": 12766464,
      "byteStride": 12
    },
    {
      "buffer": 0,
      "byteLength": 57600,
      "byteOffset": 12852864,
      "byteStride": 8
    },
    { "buffer": 0, "byteLength": 28800, "byteOffset": 12910464 },
    {
      "buffer": 0,
      "byteLength": 183600,
      "byteOffset": 12939264,
      "byteStride": 12
    },
    {
      "buffer": 0,
      "byteLength": 183600,
      "byteOffset": 13122864,
      "byteStride": 12
    },
    {
      "buffer": 0,
      "byteLength": 122400,
      "byteOffset": 13306464,
      "byteStride": 8
    },
    { "buffer": 0, "byteLength": 61200, "byteOffset": 13428864 },
    {
      "buffer": 0,
      "byteLength": 271656,
      "byteOffset": 13490064,
      "byteStride": 12
    },
    {
      "buffer": 0,
      "byteLength": 271656,
      "byteOffset": 13761720,
      "byteStride": 12
    },
    {
      "buffer": 0,
      "byteLength": 181104,
      "byteOffset": 14033376,
      "byteStride": 8
    },
    { "buffer": 0, "byteLength": 90552, "byteOffset": 14214480 },
    {
      "buffer": 0,
      "byteLength": 271656,
      "byteOffset": 14305032,
      "byteStride": 12
    },
    {
      "buffer": 0,
      "byteLength": 271656,
      "byteOffset": 14576688,
      "byteStride": 12
    },
    {
      "buffer": 0,
      "byteLength": 181104,
      "byteOffset": 14848344,
      "byteStride": 8
    },
    { "buffer": 0, "byteLength": 90552, "byteOffset": 15029448 },
    {
      "buffer": 0,
      "byteLength": 767808,
      "byteOffset": 15120000,
      "byteStride": 12
    },
    {
      "buffer": 0,
      "byteLength": 767808,
      "byteOffset": 15887808,
      "byteStride": 12
    },
    {
      "buffer": 0,
      "byteLength": 511872,
      "byteOffset": 16655616,
      "byteStride": 8
    },
    { "buffer": 0, "byteLength": 255936, "byteOffset": 17167488 }
  ],
  "buffers": [{ "byteLength": 17423424, "uri": "./ENFJ_resources/ENFJ.bin" }],
  "cameras": [
    {
      "name": "active",
      "orthographic": {
        "xmag": 67.30979919433594,
        "ymag": 67.30979919433594,
        "zfar": 6277.5712890625,
        "znear": 2604.345458984375
      },
      "type": "orthographic"
    },
    {
      "name": "Perspective",
      "perspective": {
        "aspectRatio": 1.0,
        "yfov": 1.1740917176586387,
        "zfar": 9652.470703125,
        "znear": 3853.422607421875
      },
      "type": "perspective"
    },
    {
      "name": "Top",
      "orthographic": {
        "xmag": 67.30979919433594,
        "ymag": 67.30979919433594,
        "zfar": 26604.87109375,
        "znear": 22372.716796875
      },
      "type": "orthographic"
    },
    {
      "name": "Front",
      "orthographic": {
        "xmag": 179.99899291992188,
        "ymag": 179.99899291992188,
        "zfar": 14527.51171875,
        "znear": 11466.69140625
      },
      "type": "orthographic"
    },
    {
      "name": "Right",
      "orthographic": {
        "xmag": 179.99899291992188,
        "ymag": 179.99899291992188,
        "zfar": 731.155029296875,
        "znear": 0.0010000000474974513
      },
      "type": "orthographic"
    }
  ],
  "images": [
    { "uri": "./ENFJ_resources/MBTI___-1.stl_9_occlusion.png" },
    { "uri": "./ENFJ_resources/MBTI___-1.stl_12_occlusion.png" },
    { "uri": "./ENFJ_resources/MBTI___-1.stl_14_occlusion.png" },
    { "uri": "./ENFJ_resources/MBTI___-1.stl_16_occlusion.png" },
    { "uri": "./ENFJ_resources/MBTI___-1.stl_18_occlusion.png" },
    { "uri": "./ENFJ_resources/MBTI___-1.stl_21_occlusion.png" },
    { "uri": "./ENFJ_resources/MBTI___-1.stl_23_occlusion.png" },
    { "uri": "./ENFJ_resources/MBTI___-1.stl_26_occlusion.png" }
  ],
  "materials": [
    {
      "doubleSided": true,
      "occlusionTexture": { "index": 0 },
      "pbrMetallicRoughness": {
        "baseColorFactor": [
          0.06358134746551514, 0.7613094449043274, 0.16341456770896912, 1.0
        ],
        "metallicFactor": 0.0,
        "roughnessFactor": 0.0
      }
    },
    {
      "doubleSided": true,
      "occlusionTexture": { "index": 1 },
      "pbrMetallicRoughness": {
        "baseColorFactor": [0.4794468879699707, 0.9074073433876038, 1.0, 1.0],
        "metallicFactor": 0.0,
        "roughnessFactor": 0.0
      }
    },
    {
      "doubleSided": true,
      "occlusionTexture": { "index": 2 },
      "pbrMetallicRoughness": {
        "baseColorFactor": [0.4794468879699707, 0.9074073433876038, 1.0, 1.0],
        "metallicFactor": 0.0,
        "roughnessFactor": 0.0
      }
    },
    {
      "doubleSided": true,
      "occlusionTexture": { "index": 3 },
      "pbrMetallicRoughness": {
        "baseColorFactor": [0.4794468879699707, 0.9074073433876038, 1.0, 1.0],
        "metallicFactor": 0.0,
        "roughnessFactor": 0.0
      }
    },
    {
      "doubleSided": true,
      "occlusionTexture": { "index": 4 },
      "pbrMetallicRoughness": {
        "baseColorFactor": [0.4794468879699707, 0.9074073433876038, 1.0, 1.0],
        "metallicFactor": 0.0,
        "roughnessFactor": 0.0
      }
    },
    {
      "doubleSided": true,
      "occlusionTexture": { "index": 5 },
      "pbrMetallicRoughness": {
        "baseColorFactor": [0.0, 0.0, 0.0, 1.0],
        "metallicFactor": 0.0,
        "roughnessFactor": 0.0
      }
    },
    {
      "doubleSided": true,
      "occlusionTexture": { "index": 6 },
      "pbrMetallicRoughness": {
        "baseColorFactor": [0.0, 0.0, 0.0, 1.0],
        "metallicFactor": 0.0,
        "roughnessFactor": 0.0
      }
    },
    {
      "doubleSided": true,
      "occlusionTexture": { "index": 7 },
      "pbrMetallicRoughness": {
        "baseColorFactor": [
          0.03690885007381439, 0.17999479174613953, 0.27491042017936707, 1.0
        ],
        "metallicFactor": 0.0,
        "roughnessFactor": 0.0
      }
    }
  ],
  "meshes": [
    {
      "name": "MBTI___-1.stl(A8E56E01-9E0F-4D16-AB73-16D337800061)-mesh",
      "primitives": [
        {
          "attributes": { "NORMAL": 1, "POSITION": 0, "TEXCOORD_0": 2 },
          "indices": 3,
          "material": 0,
          "mode": 4
        }
      ]
    },
    {
      "name": "MBTI___-1.stl(F7E36D19-CA75-45CF-B6DC-06E5FA232C50)-mesh",
      "primitives": [
        {
          "attributes": { "NORMAL": 5, "POSITION": 4, "TEXCOORD_0": 6 },
          "indices": 7,
          "material": 1,
          "mode": 4
        }
      ]
    },
    {
      "name": "MBTI___-1.stl(07DF9EB9-0DF9-4ECB-B5C7-B5867BCF0992)-mesh",
      "primitives": [
        {
          "attributes": { "NORMAL": 9, "POSITION": 8, "TEXCOORD_0": 10 },
          "indices": 11,
          "material": 2,
          "mode": 4
        }
      ]
    },
    {
      "name": "MBTI___-1.stl(F60F4B75-CE77-4C33-96E2-C7D652E1D108)-mesh",
      "primitives": [
        {
          "attributes": { "NORMAL": 13, "POSITION": 12, "TEXCOORD_0": 14 },
          "indices": 15,
          "material": 3,
          "mode": 4
        }
      ]
    },
    {
      "name": "MBTI___-1.stl(3618BD90-467A-44CF-9021-C91CA9D19A61)-mesh",
      "primitives": [
        {
          "attributes": { "NORMAL": 17, "POSITION": 16, "TEXCOORD_0": 18 },
          "indices": 19,
          "material": 4,
          "mode": 4
        }
      ]
    },
    {
      "name": "MBTI___-1.stl(147C6580-60D2-4195-B68C-33ABDC5F6A32)-mesh",
      "primitives": [
        {
          "attributes": { "NORMAL": 21, "POSITION": 20, "TEXCOORD_0": 22 },
          "indices": 23,
          "material": 5,
          "mode": 4
        }
      ]
    },
    {
      "name": "MBTI___-1.stl(7E586108-A412-4B3D-B451-631A988C9DC3)-mesh",
      "primitives": [
        {
          "attributes": { "NORMAL": 25, "POSITION": 24, "TEXCOORD_0": 26 },
          "indices": 27,
          "material": 6,
          "mode": 4
        }
      ]
    },
    {
      "name": "MBTI___-1.stl(01352DA6-6764-4642-BAD0-4B83C09EC803)-mesh",
      "primitives": [
        {
          "attributes": { "NORMAL": 29, "POSITION": 28, "TEXCOORD_0": 30 },
          "indices": 31,
          "material": 7,
          "mode": 4
        }
      ]
    }
  ],
  "nodes": [
    {
      "camera": 0,
      "matrix": [
        0.999892965991898, -1.9608305201757048e-8, 0.01462849378490836, 0.0,
        0.0026338392732102598, 0.9836579164371003, -0.18002797237323429, 0.0,
        -0.014389431104063988, 0.18004724383354187, 0.9835526943206787, 0.0,
        -0.3778771758079529, 1673.9403076171875, 4262.64013671875, 1.0
      ],
      "name": "active"
    },
    {
      "camera": 1,
      "matrix": [
        0.7500039935111998, 5.302759058220739e-17, -0.4330019950866699, 0.0,
        -0.2165022879898402, 0.7499967180317845, -0.3750042319416806, 0.0,
        0.4330019950866699, 0.5000029802322388, 0.7500039935112, 0.0,
        -5233.0400390625, 2893.070068359375, 10292.5, 1.0
      ],
      "name": "Perspective"
    },
    {
      "camera": 2,
      "matrix": [
        0.9958230187352424, -1.977309471712374e-8, -0.09130440431991793, 0.0,
        -0.025533987261711612, 0.9600993169576101, -0.2784898652900216, 0.0,
        0.08766130357980728, 0.2796579897403717, 0.9560890197753906, 0.0,
        2367.18994140625, 10130.900390625, 22519.19921875, 1.0
      ],
      "name": "Top"
    },
    {
      "camera": 3,
      "matrix": [
        1.0, 0.0, 0.0, 0.0, 0.0, 1.0, 1.22465002895872e-16, 0.0, 0.0,
        -1.22465002895872e-16, 1.0, 0.0, -6750.06005859375,
        -9.674859654737467e-13, 12997.099609375, 1.0
      ],
      "name": "Front"
    },
    {
      "camera": 4,
      "matrix": [
        0.0, 1.22465002895872e-16, -1.0, 0.0, 0.0, 1.0, 1.22465002895872e-16,
        0.0, 1.0, 0.0, 0.0, 0.0, -1384.300048828125, 0.0, 5097.0, 1.0
      ],
      "name": "Right"
    },
    {
      "matrix": [
        1.0, 0.0, 0.0, 0.0, 0.0, 1.0, 0.0, 0.0, 0.0, 0.0, 1.0, 0.0, 0.0, 0.0,
        45.44210052023038, 1.0
      ],
      "mesh": 0,
      "name": "MBTI___-1.stl(A8E56E01-9E0F-4D16-AB73-16D337800061)"
    },
    { "children": [5], "name": "Layer 42" },
    {
      "mesh": 1,
      "name": "MBTI___-1.stl(F7E36D19-CA75-45CF-B6DC-06E5FA232C50)"
    },
    {
      "mesh": 2,
      "name": "MBTI___-1.stl(07DF9EB9-0DF9-4ECB-B5C7-B5867BCF0992)"
    },
    {
      "mesh": 3,
      "name": "MBTI___-1.stl(F60F4B75-CE77-4C33-96E2-C7D652E1D108)"
    },
    {
      "mesh": 4,
      "name": "MBTI___-1.stl(3618BD90-467A-44CF-9021-C91CA9D19A61)"
    },
    { "children": [7, 8, 9, 10], "name": "Layer 43" },
    {
      "mesh": 5,
      "name": "MBTI___-1.stl(147C6580-60D2-4195-B68C-33ABDC5F6A32)"
    },
    {
      "mesh": 6,
      "name": "MBTI___-1.stl(7E586108-A412-4B3D-B451-631A988C9DC3)"
    },
    { "children": [12, 13], "name": "Layer 44" },
    {
      "mesh": 7,
      "name": "MBTI___-1.stl(01352DA6-6764-4642-BAD0-4B83C09EC803)"
    },
    { "children": [15], "name": "Layer 45" },
    { "children": [6, 11, 14, 16], "name": "ENFJ" },
    {
      "children": [17],
      "matrix": [
        1.0, 0.0, 0.0, 0.0, 0.0, 1.22465002895872e-16, -1.0, 0.0, 0.0, 1.0,
        1.22465002895872e-16, 0.0, -6750.06005859375, 817.2120258968021, 5097.0,
        1.0
      ],
      "name": "ENFP"
    },
    { "children": [18], "name": "Default" },
    {
      "children": [19],
      "matrix": [
        0.001, 0.0, 0.0, 0.0, 0.0, 0.001, 0.0, 0.0, 0.0, 0.0, 0.001, 0.0, 0.0,
        0.0, 0.0, 1.0
      ],
      "name": "lux_root"
    }
  ],
  "samplers": [
    { "magFilter": 9729, "minFilter": 9987, "wrapS": 10497, "wrapT": 10497 },
    { "magFilter": 9729, "minFilter": 9987, "wrapS": 10497, "wrapT": 10497 },
    { "magFilter": 9729, "minFilter": 9987, "wrapS": 10497, "wrapT": 10497 },
    { "magFilter": 9729, "minFilter": 9987, "wrapS": 10497, "wrapT": 10497 },
    { "magFilter": 9729, "minFilter": 9987, "wrapS": 10497, "wrapT": 10497 },
    { "magFilter": 9729, "minFilter": 9987, "wrapS": 10497, "wrapT": 10497 },
    { "magFilter": 9729, "minFilter": 9987, "wrapS": 10497, "wrapT": 10497 },
    { "magFilter": 9729, "minFilter": 9987, "wrapS": 10497, "wrapT": 10497 }
  ],
  "scenes": [{ "nodes": [0, 1, 2, 3, 4, 20] }],
  "textures": [
    { "sampler": 0, "source": 0 },
    { "sampler": 1, "source": 1 },
    { "sampler": 2, "source": 2 },
    { "sampler": 3, "source": 3 },
    { "sampler": 4, "source": 4 },
    { "sampler": 5, "source": 5 },
    { "sampler": 6, "source": 6 },
    { "sampler": 7, "source": 7 }
  ]
}
