{
  "accessors": [
    {
      "bufferView": 0,
      "componentType": 5126,
      "count": 3672,
      "max": [13227.48046875, 6856.443359375, 2008.4906005859375],
      "min": [9563.3232421875, 3192.2861328125, -1705.80908203125],
      "type": "VEC3"
    },
    { "bufferView": 1, "componentType": 5126, "count": 3672, "type": "VEC3" },
    { "bufferView": 2, "componentType": 5126, "count": 3672, "type": "VEC2" },
    { "bufferView": 3, "componentType": 5125, "count": 3672, "type": "SCALAR" },
    {
      "bufferView": 4,
      "componentType": 5126,
      "count": 22638,
      "max": [11322.37890625, 4444.89501953125, 783.3582153320313],
      "min": [11025.234375, 4108.701171875, 451.913330078125],
      "type": "VEC3"
    },
    { "bufferView": 5, "componentType": 5126, "count": 22638, "type": "VEC3" },
    { "bufferView": 6, "componentType": 5126, "count": 22638, "type": "VEC2" },
    {
      "bufferView": 7,
      "componentType": 5125,
      "count": 22638,
      "type": "SCALAR"
    },
    {
      "bufferView": 8,
      "componentType": 5126,
      "count": 22638,
      "max": [11778.708984375, 4444.89501953125, 783.3582153320313],
      "min": [11481.564453125, 4108.701171875, 451.913330078125],
      "type": "VEC3"
    },
    { "bufferView": 9, "componentType": 5126, "count": 22638, "type": "VEC3" },
    { "bufferView": 10, "componentType": 5126, "count": 22638, "type": "VEC2" },
    {
      "bufferView": 11,
      "componentType": 5125,
      "count": 22638,
      "type": "SCALAR"
    },
    {
      "bufferView": 12,
      "componentType": 5126,
      "count": 63984,
      "max": [11781.9599609375, 4198.51708984375, 436.4934997558594],
      "min": [11020.591796875, 3912.7705078125, -2.5072436332702637],
      "type": "VEC3"
    },
    { "bufferView": 13, "componentType": 5126, "count": 63984, "type": "VEC3" },
    { "bufferView": 14, "componentType": 5126, "count": 63984, "type": "VEC2" },
    {
      "bufferView": 15,
      "componentType": 5125,
      "count": 63984,
      "type": "SCALAR"
    },
    {
      "bufferView": 16,
      "componentType": 5126,
      "count": 57024,
      "max": [12255.166015625, 5475.40771484375, -867.7942504882813],
      "min": [11560.693359375, 4559.3095703125, -2289.42578125],
      "type": "VEC3"
    },
    { "bufferView": 17, "componentType": 5126, "count": 57024, "type": "VEC3" },
    { "bufferView": 18, "componentType": 5126, "count": 57024, "type": "VEC2" },
    {
      "bufferView": 19,
      "componentType": 5125,
      "count": 57024,
      "type": "SCALAR"
    },
    {
      "bufferView": 20,
      "componentType": 5126,
      "count": 57024,
      "max": [11180.7255859375, 5475.40771484375, -867.7942504882813],
      "min": [10486.2529296875, 4559.3095703125, -2289.42578125],
      "type": "VEC3"
    },
    { "bufferView": 21, "componentType": 5126, "count": 57024, "type": "VEC3" },
    { "bufferView": 22, "componentType": 5126, "count": 57024, "type": "VEC2" },
    {
      "bufferView": 23,
      "componentType": 5125,
      "count": 57024,
      "type": "SCALAR"
    },
    {
      "bufferView": 24,
      "componentType": 5126,
      "count": 4800,
      "max": [12312.5478515625, 5939.703125, 1847.5963134765625],
      "min": [10478.2509765625, 4109.0263671875, 1061.4693603515625],
      "type": "VEC3"
    },
    { "bufferView": 25, "componentType": 5126, "count": 4800, "type": "VEC3" },
    { "bufferView": 26, "componentType": 5126, "count": 4800, "type": "VEC2" },
    { "bufferView": 27, "componentType": 5125, "count": 4800, "type": "SCALAR" }
  ],
  "asset": { "generator": "Luxion KeyShot", "version": "2.0" },
  "bufferViews": [
    { "buffer": 0, "byteLength": 44064, "byteOffset": 0, "byteStride": 12 },
    { "buffer": 0, "byteLength": 44064, "byteOffset": 44064, "byteStride": 12 },
    { "buffer": 0, "byteLength": 29376, "byteOffset": 88128, "byteStride": 8 },
    { "buffer": 0, "byteLength": 14688, "byteOffset": 117504 },
    {
      "buffer": 0,
      "byteLength": 271656,
      "byteOffset": 132192,
      "byteStride": 12
    },
    {
      "buffer": 0,
      "byteLength": 271656,
      "byteOffset": 403848,
      "byteStride": 12
    },
    {
      "buffer": 0,
      "byteLength": 181104,
      "byteOffset": 675504,
      "byteStride": 8
    },
    { "buffer": 0, "byteLength": 90552, "byteOffset": 856608 },
    {
      "buffer": 0,
      "byteLength": 271656,
      "byteOffset": 947160,
      "byteStride": 12
    },
    {
      "buffer": 0,
      "byteLength": 271656,
      "byteOffset": 1218816,
      "byteStride": 12
    },
    {
      "buffer": 0,
      "byteLength": 181104,
      "byteOffset": 1490472,
      "byteStride": 8
    },
    { "buffer": 0, "byteLength": 90552, "byteOffset": 1671576 },
    {
      "buffer": 0,
      "byteLength": 767808,
      "byteOffset": 1762128,
      "byteStride": 12
    },
    {
      "buffer": 0,
      "byteLength": 767808,
      "byteOffset": 2529936,
      "byteStride": 12
    },
    {
      "buffer": 0,
      "byteLength": 511872,
      "byteOffset": 3297744,
      "byteStride": 8
    },
    { "buffer": 0, "byteLength": 255936, "byteOffset": 3809616 },
    {
      "buffer": 0,
      "byteLength": 684288,
      "byteOffset": 4065552,
      "byteStride": 12
    },
    {
      "buffer": 0,
      "byteLength": 684288,
      "byteOffset": 4749840,
      "byteStride": 12
    },
    {
      "buffer": 0,
      "byteLength": 456192,
      "byteOffset": 5434128,
      "byteStride": 8
    },
    { "buffer": 0, "byteLength": 228096, "byteOffset": 5890320 },
    {
      "buffer": 0,
      "byteLength": 684288,
      "byteOffset": 6118416,
      "byteStride": 12
    },
    {
      "buffer": 0,
      "byteLength": 684288,
      "byteOffset": 6802704,
      "byteStride": 12
    },
    {
      "buffer": 0,
      "byteLength": 456192,
      "byteOffset": 7486992,
      "byteStride": 8
    },
    { "buffer": 0, "byteLength": 228096, "byteOffset": 7943184 },
    {
      "buffer": 0,
      "byteLength": 57600,
      "byteOffset": 8171280,
      "byteStride": 12
    },
    {
      "buffer": 0,
      "byteLength": 57600,
      "byteOffset": 8228880,
      "byteStride": 12
    },
    {
      "buffer": 0,
      "byteLength": 38400,
      "byteOffset": 8286480,
      "byteStride": 8
    },
    { "buffer": 0, "byteLength": 19200, "byteOffset": 8324880 }
  ],
  "buffers": [{ "byteLength": 8344080, "uri": "./ENFJ_resources/ENFJ.bin" }],
  "cameras": [
    {
      "name": "active",
      "perspective": {
        "aspectRatio": 1.0,
        "yfov": 0.6911154697478635,
        "zfar": 16734.416015625,
        "znear": 12424.7548828125
      },
      "type": "perspective"
    },
    {
      "name": "Perspective",
      "perspective": {
        "aspectRatio": 1.0,
        "yfov": 1.1740917176586387,
        "zfar": 21130.533203125,
        "znear": 16924.029296875
      },
      "type": "perspective"
    },
    {
      "name": "Top",
      "orthographic": {
        "xmag": 11.708900451660156,
        "ymag": 11.708900451660156,
        "zfar": 38700.22265625,
        "znear": 34427.07421875
      },
      "type": "orthographic"
    },
    {
      "name": "Front",
      "orthographic": {
        "xmag": 179.99899291992188,
        "ymag": 179.99899291992188,
        "zfar": 18557.18359375,
        "znear": 14893.025390625
      },
      "type": "orthographic"
    },
    {
      "name": "Right",
      "orthographic": {
        "xmag": 179.99899291992188,
        "ymag": 179.99899291992188,
        "zfar": 0.10000000149011612,
        "znear": 0.0010000000474974513
      },
      "type": "orthographic"
    }
  ],
  "images": [
    { "uri": "./ENFJ_resources/MBTI___-1.stl_8_occlusion.png" },
    { "uri": "./ENFJ_resources/MBTI___-1.stl_11_occlusion.png" },
    { "uri": "./ENFJ_resources/MBTI___-1.stl_13_occlusion.png" },
    { "uri": "./ENFJ_resources/MBTI___-1.stl_16_occlusion.png" },
    { "uri": "./ENFJ_resources/MBTI___-1.stl_19_occlusion.png" },
    { "uri": "./ENFJ_resources/MBTI___-1.stl_21_occlusion.png" },
    { "uri": "./ENFJ_resources/MBTI___-1.stl_26_occlusion.png" }
  ],
  "materials": [
    {
      "doubleSided": true,
      "occlusionTexture": { "index": 0 },
      "pbrMetallicRoughness": {
        "baseColorFactor": [0.4794468879699707, 0.9074073433876038, 1.0, 1.0],
        "metallicFactor": 0.0,
        "roughnessFactor": 0.0
      }
    },
    {
      "doubleSided": true,
      "occlusionTexture": { "index": 1 },
      "pbrMetallicRoughness": {
        "baseColorFactor": [0.0, 0.0, 0.0, 1.0],
        "metallicFactor": 0.0,
        "roughnessFactor": 0.0
      }
    },
    {
      "doubleSided": true,
      "occlusionTexture": { "index": 2 },
      "pbrMetallicRoughness": {
        "baseColorFactor": [0.0, 0.0, 0.0, 1.0],
        "metallicFactor": 0.0,
        "roughnessFactor": 0.0
      }
    },
    {
      "doubleSided": true,
      "occlusionTexture": { "index": 3 },
      "pbrMetallicRoughness": {
        "baseColorFactor": [
          0.03690885007381439, 0.17999479174613953, 0.27491042017936707, 1.0
        ],
        "metallicFactor": 0.0,
        "roughnessFactor": 0.0
      }
    },
    {
      "doubleSided": true,
      "occlusionTexture": { "index": 4 },
      "pbrMetallicRoughness": {
        "baseColorFactor": [
          0.024509787559509277, 0.3145427405834198, 0.7230396866798401, 1.0
        ],
        "metallicFactor": 0.0,
        "roughnessFactor": 0.0
      }
    },
    {
      "doubleSided": true,
      "occlusionTexture": { "index": 5 },
      "pbrMetallicRoughness": {
        "baseColorFactor": [
          0.024509787559509277, 0.3145427405834198, 0.7230396866798401, 1.0
        ],
        "metallicFactor": 0.0,
        "roughnessFactor": 0.0
      }
    },
    {
      "doubleSided": true,
      "occlusionTexture": { "index": 6 },
      "pbrMetallicRoughness": {
        "baseColorFactor": [
          0.8733167052268982, 0.8733167052268982, 0.8733167052268982, 1.0
        ],
        "metallicFactor": 0.0,
        "roughnessFactor": 0.0
      }
    }
  ],
  "meshes": [
    {
      "name": "MBTI___-1.stl(DFDEE446-917D-4118-98D3-5810BC988C7C)-mesh",
      "primitives": [
        {
          "attributes": { "NORMAL": 1, "POSITION": 0, "TEXCOORD_0": 2 },
          "indices": 3,
          "material": 0,
          "mode": 4
        }
      ]
    },
    {
      "name": "MBTI___-1.stl(E96AD859-7160-4ECF-9C2E-378A42B39DBC)-mesh",
      "primitives": [
        {
          "attributes": { "NORMAL": 5, "POSITION": 4, "TEXCOORD_0": 6 },
          "indices": 7,
          "material": 1,
          "mode": 4
        }
      ]
    },
    {
      "name": "MBTI___-1.stl(750F7D86-7645-49F5-85AB-50F15587E6C4)-mesh",
      "primitives": [
        {
          "attributes": { "NORMAL": 9, "POSITION": 8, "TEXCOORD_0": 10 },
          "indices": 11,
          "material": 2,
          "mode": 4
        }
      ]
    },
    {
      "name": "MBTI___-1.stl(929B1BE0-EDC7-4808-8C9E-8B2F29B2669B)-mesh",
      "primitives": [
        {
          "attributes": { "NORMAL": 13, "POSITION": 12, "TEXCOORD_0": 14 },
          "indices": 15,
          "material": 3,
          "mode": 4
        }
      ]
    },
    {
      "name": "MBTI___-1.stl(E090655A-E4B0-43C2-ADAD-D77449A341C6)-mesh",
      "primitives": [
        {
          "attributes": { "NORMAL": 17, "POSITION": 16, "TEXCOORD_0": 18 },
          "indices": 19,
          "material": 4,
          "mode": 4
        }
      ]
    },
    {
      "name": "MBTI___-1.stl(5B5FAC80-A3DC-430E-B998-EEE5CCA38873)-mesh",
      "primitives": [
        {
          "attributes": { "NORMAL": 21, "POSITION": 20, "TEXCOORD_0": 22 },
          "indices": 23,
          "material": 5,
          "mode": 4
        }
      ]
    },
    {
      "name": "MBTI___-1.stl(D792AD50-67C5-404D-A55D-9B2D659467B8)-mesh",
      "primitives": [
        {
          "attributes": { "NORMAL": 25, "POSITION": 24, "TEXCOORD_0": 26 },
          "indices": 27,
          "material": 6,
          "mode": 4
        }
      ]
    }
  ],
  "nodes": [
    {
      "camera": 0,
      "matrix": [
        0.998941787596006, -1.8333871509845778e-7, 0.04599325284864157, 0.0,
        0.00546805078503328, 0.9929081899453912, -0.11875834060552772, 0.0,
        -0.045667052268981934, 0.11888415366411209, 0.9918574094772339, 0.0,
        -604.913330078125, 1940.112548828125, 14484.2392578125, 1.0
      ],
      "name": "active"
    },
    {
      "camera": 1,
      "matrix": [
        0.9997797178330365, -7.172138230537861e-9, 0.02095507352558355, 0.0,
        0.002408583327726156, 0.993371420192796, -0.11491468317848404, 0.0,
        -0.020816199481487274, 0.11494000256061554, 0.993153989315033, 0.0,
        2462.699951171875, 94.57250213623047, 19242.900390625, 1.0
      ],
      "name": "Perspective"
    },
    {
      "camera": 2,
      "matrix": [
        1.0, 0.0, 0.0, 0.0, 0.0, 1.22465002895872e-16, -1.0, 0.0, 0.0, 1.0,
        1.22465002895872e-16, 0.0, -1173.800048828125, 36942.1015625,
        -916.5650024414063, 1.0
      ],
      "name": "Top"
    },
    {
      "camera": 3,
      "matrix": [
        1.0, 0.0, 0.0, 0.0, 0.0, 1.0, 1.22465002895872e-16, 0.0, 0.0,
        -1.22465002895872e-16, 1.0, 0.0, -11395.400390625,
        -1.4329199719137486e-12, 16725.099609375, 1.0
      ],
      "name": "Front"
    },
    {
      "camera": 4,
      "matrix": [
        0.0, 1.22465002895872e-16, -1.0, 0.0, 0.0, 1.0, 1.22465002895872e-16,
        0.0, 1.0, 0.0, 0.0, 0.0, -2229.02001953125, 0.0, 5024.35986328125, 1.0
      ],
      "name": "Right"
    },
    {
      "matrix": [
        1.0, 0.0, 0.0, 0.0, 0.0, 1.0, 0.0, 0.0, 0.0, 0.0, 1.0, 0.0, 0.0, 0.0,
        -24.76985649104637, 1.0
      ],
      "mesh": 0,
      "name": "MBTI___-1.stl(DFDEE446-917D-4118-98D3-5810BC988C7C)"
    },
    { "children": [5], "name": "Layer 38" },
    {
      "mesh": 1,
      "name": "MBTI___-1.stl(E96AD859-7160-4ECF-9C2E-378A42B39DBC)"
    },
    {
      "mesh": 2,
      "name": "MBTI___-1.stl(750F7D86-7645-49F5-85AB-50F15587E6C4)"
    },
    { "children": [7, 8], "name": "Layer 39" },
    {
      "mesh": 3,
      "name": "MBTI___-1.stl(929B1BE0-EDC7-4808-8C9E-8B2F29B2669B)"
    },
    { "children": [10], "name": "Layer 40" },
    {
      "mesh": 4,
      "name": "MBTI___-1.stl(E090655A-E4B0-43C2-ADAD-D77449A341C6)"
    },
    {
      "mesh": 5,
      "name": "MBTI___-1.stl(5B5FAC80-A3DC-430E-B998-EEE5CCA38873)"
    },
    { "children": [12, 13], "name": "Layer 41" },
    { "children": [6, 9, 11, 14], "name": "ENFP" },
    {
      "mesh": 6,
      "name": "MBTI___-1.stl(D792AD50-67C5-404D-A55D-9B2D659467B8)"
    },
    { "children": [16], "name": "Layer 56" },
    { "children": [17], "name": "ESTJ" },
    {
      "children": [15, 18],
      "matrix": [
        1.0, 0.0, 0.0, 0.0, 0.0, 1.22465002895872e-16, -1.0, 0.0, 0.0, 1.0,
        1.22465002895872e-16, 0.0, -11395.400390625, 531.3065891282661,
        5024.35986328125, 1.0
      ],
      "name": "ENFJ"
    },
    { "children": [19], "name": "Default" },
    {
      "children": [20],
      "matrix": [
        0.001, 0.0, 0.0, 0.0, 0.0, 0.001, 0.0, 0.0, 0.0, 0.0, 0.001, 0.0, 0.0,
        0.0, 0.0, 1.0
      ],
      "name": "lux_root"
    }
  ],
  "samplers": [
    { "magFilter": 9729, "minFilter": 9987, "wrapS": 10497, "wrapT": 10497 },
    { "magFilter": 9729, "minFilter": 9987, "wrapS": 10497, "wrapT": 10497 },
    { "magFilter": 9729, "minFilter": 9987, "wrapS": 10497, "wrapT": 10497 },
    { "magFilter": 9729, "minFilter": 9987, "wrapS": 10497, "wrapT": 10497 },
    { "magFilter": 9729, "minFilter": 9987, "wrapS": 10497, "wrapT": 10497 },
    { "magFilter": 9729, "minFilter": 9987, "wrapS": 10497, "wrapT": 10497 },
    { "magFilter": 9729, "minFilter": 9987, "wrapS": 10497, "wrapT": 10497 }
  ],
  "scenes": [{ "nodes": [0, 1, 2, 3, 4, 21] }],
  "textures": [
    { "sampler": 0, "source": 0 },
    { "sampler": 1, "source": 1 },
    { "sampler": 2, "source": 2 },
    { "sampler": 3, "source": 3 },
    { "sampler": 4, "source": 4 },
    { "sampler": 5, "source": 5 },
    { "sampler": 6, "source": 6 }
  ]
}
