{
  "accessors": [
    {
      "bufferView": 0,
      "componentType": 5126,
      "count": 1654224,
      "max": [8768.220703125, -2752.107177734375, 2936.930419921875],
      "min": [5351.07421875, -4747.64453125, -571.3197631835938],
      "type": "VEC3"
    },
    {
      "bufferView": 1,
      "componentType": 5126,
      "count": 1654224,
      "type": "VEC3"
    },
    {
      "bufferView": 2,
      "componentType": 5126,
      "count": 1654224,
      "type": "VEC2"
    },
    {
      "bufferView": 3,
      "componentType": 5125,
      "count": 1654224,
      "type": "SCALAR"
    },
    {
      "bufferView": 4,
      "componentType": 5126,
      "count": 19494,
      "max": [7022.359375, -4193.125, 2623.524169921875],
      "min": [6707.26953125, -4511.78857421875, 2321.64404296875],
      "type": "VEC3"
    },
    { "bufferView": 5, "componentType": 5126, "count": 19494, "type": "VEC3" },
    { "bufferView": 6, "componentType": 5126, "count": 19494, "type": "VEC2" },
    {
      "bufferView": 7,
      "componentType": 5125,
      "count": 19494,
      "type": "SCALAR"
    },
    {
      "bufferView": 8,
      "componentType": 5126,
      "count": 19494,
      "max": [7462.212890625, -4159.041015625, 2644.516357421875],
      "min": [7147.12744140625, -4477.705078125, 2342.635986328125],
      "type": "VEC3"
    },
    { "bufferView": 9, "componentType": 5126, "count": 19494, "type": "VEC3" },
    { "bufferView": 10, "componentType": 5126, "count": 19494, "type": "VEC2" },
    {
      "bufferView": 11,
      "componentType": 5125,
      "count": 19494,
      "type": "SCALAR"
    },
    {
      "bufferView": 12,
      "componentType": 5126,
      "count": 57024,
      "max": [8208.77734375, -2869.267333984375, 384.8393249511719],
      "min": [7304.32763671875, -3927.5537109375, -1019.0452880859375],
      "type": "VEC3"
    },
    { "bufferView": 13, "componentType": 5126, "count": 57024, "type": "VEC3" },
    { "bufferView": 14, "componentType": 5126, "count": 57024, "type": "VEC2" },
    {
      "bufferView": 15,
      "componentType": 5125,
      "count": 57024,
      "type": "SCALAR"
    },
    {
      "bufferView": 16,
      "componentType": 5126,
      "count": 57024,
      "max": [6986.1640625, -2971.6044921875, 319.8350524902344],
      "min": [6146.6650390625, -4005.583740234375, -1067.3800048828125],
      "type": "VEC3"
    },
    { "bufferView": 17, "componentType": 5126, "count": 57024, "type": "VEC3" },
    { "bufferView": 18, "componentType": 5126, "count": 57024, "type": "VEC2" },
    {
      "bufferView": 19,
      "componentType": 5125,
      "count": 57024,
      "type": "SCALAR"
    }
  ],
  "asset": { "generator": "Luxion KeyShot", "version": "2.0" },
  "bufferViews": [
    { "buffer": 0, "byteLength": 19850688, "byteOffset": 0, "byteStride": 12 },
    {
      "buffer": 0,
      "byteLength": 19850688,
      "byteOffset": 19850688,
      "byteStride": 12
    },
    {
      "buffer": 0,
      "byteLength": 13233792,
      "byteOffset": 39701376,
      "byteStride": 8
    },
    { "buffer": 0, "byteLength": 6616896, "byteOffset": 52935168 },
    {
      "buffer": 0,
      "byteLength": 233928,
      "byteOffset": 59552064,
      "byteStride": 12
    },
    {
      "buffer": 0,
      "byteLength": 233928,
      "byteOffset": 59785992,
      "byteStride": 12
    },
    {
      "buffer": 0,
      "byteLength": 155952,
      "byteOffset": 60019920,
      "byteStride": 8
    },
    { "buffer": 0, "byteLength": 77976, "byteOffset": 60175872 },
    {
      "buffer": 0,
      "byteLength": 233928,
      "byteOffset": 60253848,
      "byteStride": 12
    },
    {
      "buffer": 0,
      "byteLength": 233928,
      "byteOffset": 60487776,
      "byteStride": 12
    },
    {
      "buffer": 0,
      "byteLength": 155952,
      "byteOffset": 60721704,
      "byteStride": 8
    },
    { "buffer": 0, "byteLength": 77976, "byteOffset": 60877656 },
    {
      "buffer": 0,
      "byteLength": 684288,
      "byteOffset": 60955632,
      "byteStride": 12
    },
    {
      "buffer": 0,
      "byteLength": 684288,
      "byteOffset": 61639920,
      "byteStride": 12
    },
    {
      "buffer": 0,
      "byteLength": 456192,
      "byteOffset": 62324208,
      "byteStride": 8
    },
    { "buffer": 0, "byteLength": 228096, "byteOffset": 62780400 },
    {
      "buffer": 0,
      "byteLength": 684288,
      "byteOffset": 63008496,
      "byteStride": 12
    },
    {
      "buffer": 0,
      "byteLength": 684288,
      "byteOffset": 63692784,
      "byteStride": 12
    },
    {
      "buffer": 0,
      "byteLength": 456192,
      "byteOffset": 64377072,
      "byteStride": 8
    },
    { "buffer": 0, "byteLength": 228096, "byteOffset": 64833264 }
  ],
  "buffers": [{ "byteLength": 65061360, "uri": "./ENTJ_resources/ENTJ.bin" }],
  "cameras": [
    {
      "name": "active",
      "perspective": {
        "aspectRatio": 1.0,
        "yfov": 1.1740917176586387,
        "zfar": 6110.49609375,
        "znear": 2865.4345703125
      },
      "type": "perspective"
    },
    {
      "name": "Perspective",
      "perspective": {
        "aspectRatio": 1.0,
        "yfov": 1.1740917176586387,
        "zfar": 0.10000000149011612,
        "znear": 0.0010000000474974513
      },
      "type": "perspective"
    },
    {
      "name": "Top",
      "orthographic": {
        "xmag": 170.08799743652344,
        "ymag": 170.08799743652344,
        "zfar": 5870.5498046875,
        "znear": 1866.239501953125
      },
      "type": "orthographic"
    },
    {
      "name": "Front",
      "orthographic": {
        "xmag": 179.99899291992188,
        "ymag": 179.99899291992188,
        "zfar": 2847.642822265625,
        "znear": 852.10546875
      },
      "type": "orthographic"
    },
    {
      "name": "Right",
      "orthographic": {
        "xmag": 179.99899291992188,
        "ymag": 179.99899291992188,
        "zfar": 0.10000000149011612,
        "znear": 0.0010000000474974513
      },
      "type": "orthographic"
    }
  ],
  "images": [
    { "uri": "./ENTJ_resources/MBTI___-1.stl_6_occlusion.png" },
    { "uri": "./ENTJ_resources/MBTI___-1.stl_9_occlusion.png" },
    { "uri": "./ENTJ_resources/MBTI___-1.stl_11_occlusion.png" },
    { "uri": "./ENTJ_resources/MBTI___-1.stl_14_occlusion.png" },
    { "uri": "./ENTJ_resources/MBTI___-1.stl_16_occlusion.png" }
  ],
  "materials": [
    {
      "doubleSided": true,
      "occlusionTexture": { "index": 0 },
      "pbrMetallicRoughness": {
        "baseColorFactor": [1.0, 0.313981831073761, 0.0, 1.0],
        "metallicFactor": 0.0,
        "roughnessFactor": 0.0
      }
    },
    {
      "doubleSided": true,
      "occlusionTexture": { "index": 1 },
      "pbrMetallicRoughness": {
        "baseColorFactor": [0.0, 0.0, 0.0, 1.0],
        "metallicFactor": 0.0,
        "roughnessFactor": 0.0
      }
    },
    {
      "doubleSided": true,
      "occlusionTexture": { "index": 2 },
      "pbrMetallicRoughness": {
        "baseColorFactor": [0.0, 0.0, 0.0, 1.0],
        "metallicFactor": 0.0,
        "roughnessFactor": 0.0
      }
    },
    {
      "doubleSided": true,
      "occlusionTexture": { "index": 3 },
      "pbrMetallicRoughness": {
        "baseColorFactor": [1.0, 0.6601468324661255, 0.0, 1.0],
        "metallicFactor": 0.0,
        "roughnessFactor": 0.0
      }
    },
    {
      "doubleSided": true,
      "occlusionTexture": { "index": 4 },
      "pbrMetallicRoughness": {
        "baseColorFactor": [1.0, 0.6601468324661255, 0.0, 1.0],
        "metallicFactor": 0.0,
        "roughnessFactor": 0.0
      }
    }
  ],
  "meshes": [
    {
      "name": "MBTI___-1.stl(2084285F-A7EF-49D2-9E52-1DD9F9317C15)-mesh",
      "primitives": [
        {
          "attributes": { "NORMAL": 1, "POSITION": 0, "TEXCOORD_0": 2 },
          "indices": 3,
          "material": 0,
          "mode": 4
        }
      ]
    },
    {
      "name": "MBTI___-1.stl(AC96FDA3-FB73-4528-BD95-0238EBCF9AD4)-mesh",
      "primitives": [
        {
          "attributes": { "NORMAL": 5, "POSITION": 4, "TEXCOORD_0": 6 },
          "indices": 7,
          "material": 1,
          "mode": 4
        }
      ]
    },
    {
      "name": "MBTI___-1.stl(88B99293-2E0E-41FF-8360-3F5F12463B2E)-mesh",
      "primitives": [
        {
          "attributes": { "NORMAL": 9, "POSITION": 8, "TEXCOORD_0": 10 },
          "indices": 11,
          "material": 2,
          "mode": 4
        }
      ]
    },
    {
      "name": "MBTI___-1.stl(049C74FD-CE30-48F3-A5A6-F6E611849C50)-mesh",
      "primitives": [
        {
          "attributes": { "NORMAL": 13, "POSITION": 12, "TEXCOORD_0": 14 },
          "indices": 15,
          "material": 3,
          "mode": 4
        }
      ]
    },
    {
      "name": "MBTI___-1.stl(6916DDC4-0DF7-44E4-B13B-9A77A469F171)-mesh",
      "primitives": [
        {
          "attributes": { "NORMAL": 17, "POSITION": 16, "TEXCOORD_0": 18 },
          "indices": 19,
          "material": 4,
          "mode": 4
        }
      ]
    }
  ],
  "nodes": [
    {
      "camera": 0,
      "matrix": [
        0.8638977729143615, -1.2779510782934267e-9, -0.06064551782613836, 0.0,
        -0.016676077865682693, 0.832639472621735, -0.2375513988434124, 0.0,
        0.06732805073261261, 0.27497628331184387, 0.9590907096862793, 0.0,
        302.1659851074219, 2168.859375, 4304.36572265625, 1.0
      ],
      "name": "active"
    },
    {
      "camera": 1,
      "matrix": [
        0.7500041275117181, 5.3027497295965e-17, -0.4330023753206622, 0.0,
        -0.21650237914191653, 0.7499972483179491, -0.37500412752307566, 0.0,
        0.4330023753206622, 0.5000027516744787, 0.7500041275117182, 0.0,
        -6578.223449707031, 555.9160156249998, -2916.0009765625, 1.0
      ],
      "name": "Perspective"
    },
    {
      "camera": 2,
      "matrix": [
        1.0, 0.0, 0.0, 0.0, 0.0, 1.2246467991473535e-16, -1.0, 0.0, 0.0, 1.0,
        1.2246467991473535e-16, 0.0, -11972.4775390625, 4803.169921874999,
        -3348.017974853515, 1.0
      ],
      "name": "Top"
    },
    {
      "camera": 3,
      "matrix": [
        1.0, 0.0, 0.0, 0.0, 0.0, 1.0, 1.2246467991473535e-16, 0.0, 0.0,
        -1.2246467991473535e-16, 1.0, 0.0, -7059.6474609375,
        -6.857715913525391e-13, 1849.874023437499, 1.0
      ],
      "name": "Front"
    },
    {
      "camera": 4,
      "matrix": [
        0.0, 1.2246467991473535e-16, -1.0, 0.0, 0.0, 1.0,
        1.2246467991473535e-16, 0.0, 1.0, 0.0, 0.0, 0.0, -5994.58740234375, 0.0,
        -3749.8759765625, 1.0
      ],
      "name": "Right"
    },
    {
      "mesh": 0,
      "name": "MBTI___-1.stl(2084285F-A7EF-49D2-9E52-1DD9F9317C15)"
    },
    { "children": [5], "name": "Layer 24" },
    {
      "mesh": 1,
      "name": "MBTI___-1.stl(AC96FDA3-FB73-4528-BD95-0238EBCF9AD4)"
    },
    {
      "mesh": 2,
      "name": "MBTI___-1.stl(88B99293-2E0E-41FF-8360-3F5F12463B2E)"
    },
    { "children": [7, 8], "name": "Layer 25" },
    {
      "mesh": 3,
      "name": "MBTI___-1.stl(049C74FD-CE30-48F3-A5A6-F6E611849C50)"
    },
    {
      "mesh": 4,
      "name": "MBTI___-1.stl(6916DDC4-0DF7-44E4-B13B-9A77A469F171)"
    },
    { "children": [10, 11], "name": "Layer 26" },
    { "children": [6, 9, 12], "name": "ENTJ" },
    {
      "children": [13],
      "matrix": [
        1.0, 0.0, 0.0, 0.0, 0.0, 1.2246467991473532e-16, -0.9999999999999999,
        0.0, 0.0, 0.9999999999999999, 1.2246467991473532e-16, 0.0,
        -7059.6474609375, 0.0, -3749.8759765625, 1.0
      ],
      "name": "ENTJ"
    },
    { "children": [14], "name": "Default" },
    {
      "children": [15],
      "matrix": [
        0.001, 0.0, 0.0, 0.0, 0.0, 0.001, 0.0, 0.0, 0.0, 0.0, 0.001, 0.0, 0.0,
        0.0, 0.0, 1.0
      ],
      "name": "lux_root"
    }
  ],
  "samplers": [
    { "magFilter": 9729, "minFilter": 9987, "wrapS": 10497, "wrapT": 10497 },
    { "magFilter": 9729, "minFilter": 9987, "wrapS": 10497, "wrapT": 10497 },
    { "magFilter": 9729, "minFilter": 9987, "wrapS": 10497, "wrapT": 10497 },
    { "magFilter": 9729, "minFilter": 9987, "wrapS": 10497, "wrapT": 10497 },
    { "magFilter": 9729, "minFilter": 9987, "wrapS": 10497, "wrapT": 10497 }
  ],
  "scenes": [{ "nodes": [0, 1, 2, 3, 4, 16] }],
  "textures": [
    { "sampler": 0, "source": 0 },
    { "sampler": 1, "source": 1 },
    { "sampler": 2, "source": 2 },
    { "sampler": 3, "source": 3 },
    { "sampler": 4, "source": 4 }
  ]
}
