{
  "accessors": [
    {
      "bufferView": 0,
      "componentType": 5126,
      "count": 17100,
      "max": [13697.353515625, 17169.82421875, 1356.9439697265625],
      "min": [11220.080078125, 14697.4404296875, -1352.573974609375],
      "type": "VEC3"
    },
    { "bufferView": 1, "componentType": 5126, "count": 17100, "type": "VEC3" },
    { "bufferView": 2, "componentType": 5126, "count": 17100, "type": "VEC2" },
    {
      "bufferView": 3,
      "componentType": 5125,
      "count": 17100,
      "type": "SCALAR"
    },
    {
      "bufferView": 4,
      "componentType": 5126,
      "count": 44700,
      "max": [12727.9599609375, 15387.2529296875, 721.4866333007813],
      "min": [12519.9580078125, 15150.08203125, 429.4320068359375],
      "type": "VEC3"
    },
    { "bufferView": 5, "componentType": 5126, "count": 44700, "type": "VEC3" },
    { "bufferView": 6, "componentType": 5126, "count": 44700, "type": "VEC2" },
    {
      "bufferView": 7,
      "componentType": 5125,
      "count": 44700,
      "type": "SCALAR"
    },
    {
      "bufferView": 8,
      "componentType": 5126,
      "count": 44700,
      "max": [12439.943359375, 15387.2529296875, 721.4866333007813],
      "min": [12231.94140625, 15150.08203125, 429.4320068359375],
      "type": "VEC3"
    },
    { "bufferView": 9, "componentType": 5126, "count": 44700, "type": "VEC3" },
    { "bufferView": 10, "componentType": 5126, "count": 44700, "type": "VEC2" },
    {
      "bufferView": 11,
      "componentType": 5125,
      "count": 44700,
      "type": "SCALAR"
    },
    {
      "bufferView": 12,
      "componentType": 5126,
      "count": 85680,
      "max": [12799.1787109375, 15488.2373046875, 419.7174072265625],
      "min": [12146.080078125, 15199.822265625, -2.1789495944976807],
      "type": "VEC3"
    },
    { "bufferView": 13, "componentType": 5126, "count": 85680, "type": "VEC3" },
    { "bufferView": 14, "componentType": 5126, "count": 85680, "type": "VEC2" },
    {
      "bufferView": 15,
      "componentType": 5125,
      "count": 85680,
      "type": "SCALAR"
    }
  ],
  "asset": { "generator": "Luxion KeyShot", "version": "2.0" },
  "bufferViews": [
    { "buffer": 0, "byteLength": 205200, "byteOffset": 0, "byteStride": 12 },
    {
      "buffer": 0,
      "byteLength": 205200,
      "byteOffset": 205200,
      "byteStride": 12
    },
    {
      "buffer": 0,
      "byteLength": 136800,
      "byteOffset": 410400,
      "byteStride": 8
    },
    { "buffer": 0, "byteLength": 68400, "byteOffset": 547200 },
    {
      "buffer": 0,
      "byteLength": 536400,
      "byteOffset": 615600,
      "byteStride": 12
    },
    {
      "buffer": 0,
      "byteLength": 536400,
      "byteOffset": 1152000,
      "byteStride": 12
    },
    {
      "buffer": 0,
      "byteLength": 357600,
      "byteOffset": 1688400,
      "byteStride": 8
    },
    { "buffer": 0, "byteLength": 178800, "byteOffset": 2046000 },
    {
      "buffer": 0,
      "byteLength": 536400,
      "byteOffset": 2224800,
      "byteStride": 12
    },
    {
      "buffer": 0,
      "byteLength": 536400,
      "byteOffset": 2761200,
      "byteStride": 12
    },
    {
      "buffer": 0,
      "byteLength": 357600,
      "byteOffset": 3297600,
      "byteStride": 8
    },
    { "buffer": 0, "byteLength": 178800, "byteOffset": 3655200 },
    {
      "buffer": 0,
      "byteLength": 1028160,
      "byteOffset": 3834000,
      "byteStride": 12
    },
    {
      "buffer": 0,
      "byteLength": 1028160,
      "byteOffset": 4862160,
      "byteStride": 12
    },
    {
      "buffer": 0,
      "byteLength": 685440,
      "byteOffset": 5890320,
      "byteStride": 8
    },
    { "buffer": 0, "byteLength": 342720, "byteOffset": 6575760 }
  ],
  "buffers": [{ "byteLength": 6918480, "uri": "./ESFJ_resources/ESFJ.bin" }],
  "cameras": [
    {
      "name": "active",
      "perspective": {
        "aspectRatio": 1.0,
        "yfov": 0.6911154697478635,
        "zfar": 9005.6650390625,
        "znear": 4936.11376953125
      },
      "type": "perspective"
    },
    {
      "name": "Perspective",
      "perspective": {
        "aspectRatio": 1.0,
        "yfov": 1.1740917176586387,
        "zfar": 14695.486328125,
        "znear": 10413.7568359375
      },
      "type": "perspective"
    },
    {
      "name": "Top",
      "orthographic": {
        "xmag": 74.17669677734375,
        "ymag": 74.17669677734375,
        "zfar": 38294.67578125,
        "znear": 35585.15625
      },
      "type": "orthographic"
    },
    {
      "name": "Front",
      "orthographic": {
        "xmag": 179.99899291992188,
        "ymag": 179.99899291992188,
        "zfar": 26220.1328125,
        "znear": 23747.75
      },
      "type": "orthographic"
    },
    {
      "name": "Right",
      "orthographic": {
        "xmag": 179.99899291992188,
        "ymag": 179.99899291992188,
        "zfar": 0.10000000149011612,
        "znear": 0.0010000000474974513
      },
      "type": "orthographic"
    }
  ],
  "images": [
    { "uri": "./ESFJ_resources/MBTI___-1.stl_9_occlusion.png" },
    { "uri": "./ESFJ_resources/MBTI___-1.stl_12_occlusion.png" },
    { "uri": "./ESFJ_resources/MBTI___-1.stl_14_occlusion.png" },
    { "uri": "./ESFJ_resources/MBTI___-1.stl_17_occlusion.png" }
  ],
  "materials": [
    {
      "doubleSided": true,
      "occlusionTexture": { "index": 0 },
      "pbrMetallicRoughness": {
        "baseColorFactor": [
          0.06358128786087036, 0.7613097429275513, 0.16341468691825867, 1.0
        ],
        "metallicFactor": 0.0,
        "roughnessFactor": 0.0
      }
    },
    {
      "doubleSided": true,
      "occlusionTexture": { "index": 1 },
      "pbrMetallicRoughness": {
        "baseColorFactor": [0.0, 0.0, 0.0, 1.0],
        "metallicFactor": 0.0,
        "roughnessFactor": 0.0
      }
    },
    {
      "doubleSided": true,
      "occlusionTexture": { "index": 2 },
      "pbrMetallicRoughness": {
        "baseColorFactor": [0.0, 0.0, 0.0, 1.0],
        "metallicFactor": 0.0,
        "roughnessFactor": 0.0
      }
    },
    {
      "doubleSided": true,
      "occlusionTexture": { "index": 3 },
      "pbrMetallicRoughness": {
        "baseColorFactor": [0.0, 0.1476355344057083, 0.0243656188249588, 1.0],
        "metallicFactor": 0.0,
        "roughnessFactor": 0.0
      }
    }
  ],
  "meshes": [
    {
      "name": "MBTI___-1.stl(F4E387E7-D926-4381-A8EB-6BDCA0F09DA0)-mesh",
      "primitives": [
        {
          "attributes": { "NORMAL": 1, "POSITION": 0, "TEXCOORD_0": 2 },
          "indices": 3,
          "material": 0,
          "mode": 4
        }
      ]
    },
    {
      "name": "MBTI___-1.stl(48A0C672-A3CE-4B8A-A4C6-F6E5DD86F004)-mesh",
      "primitives": [
        {
          "attributes": { "NORMAL": 5, "POSITION": 4, "TEXCOORD_0": 6 },
          "indices": 7,
          "material": 1,
          "mode": 4
        }
      ]
    },
    {
      "name": "MBTI___-1.stl(A432F352-8AAD-4DA3-AB38-AD8F793704CA)-mesh",
      "primitives": [
        {
          "attributes": { "NORMAL": 9, "POSITION": 8, "TEXCOORD_0": 10 },
          "indices": 11,
          "material": 2,
          "mode": 4
        }
      ]
    },
    {
      "name": "MBTI___-1.stl(B86B588B-DD8A-4589-8571-919F7F031C87)-mesh",
      "primitives": [
        {
          "attributes": { "NORMAL": 13, "POSITION": 12, "TEXCOORD_0": 14 },
          "indices": 15,
          "material": 3,
          "mode": 4
        }
      ]
    }
  ],
  "nodes": [
    {
      "camera": 0,
      "matrix": [
        0.7643920883682664, -1.866050496346361e-7, 0.6447516389238857, 0.0,
        0.16687414034834192, 0.9659257809339643, -0.19783911306033666, 0.0,
        -0.6227822303771973, 0.258819043636322, 0.7383460998535156, 0.0,
        -4341.34619140625, 1806.384033203125, 5146.9296875, 1.0
      ],
      "name": "active"
    },
    {
      "camera": 1,
      "matrix": [
        0.7500041275117181, 5.3027497295965e-17, -0.4330023753206622, 0.0,
        -0.21650237914191653, 0.7499972483179491, -0.37500412752307566, 0.0,
        0.4330023753206622, 0.5000027516744787, 0.7500041275117182, 0.0,
        -10941.69677734375, 2893.070068359374, 21129.15283203125, 1.0
      ],
      "name": "Perspective"
    },
    {
      "camera": 2,
      "matrix": [
        1.0, 0.0, 0.0, 0.0, 0.0, 1.2246467991473535e-16, -1.0, 0.0, 0.0, 1.0,
        1.2246467991473535e-16, 0.0, -15941.966796875, 36942.10156249999,
        -1096.0664062499927, 1.0
      ],
      "name": "Top"
    },
    {
      "camera": 3,
      "matrix": [
        1.0, 0.0, 0.0, 0.0, 0.0, 1.0, 1.2246467991473535e-16, 0.0, 0.0,
        -1.2246467991473535e-16, 1.0, 0.0, -12458.716796875,
        -1.108343264657586e-12, 24983.9423828125, 1.0
      ],
      "name": "Front"
    },
    {
      "camera": 4,
      "matrix": [
        0.0, 1.2246467991473535e-16, -1.0, 0.0, 0.0, 1.0,
        1.2246467991473535e-16, 0.0, 1.0, 0.0, 0.0, 0.0, -4242.4970703125, 0.0,
        15933.6328125, 1.0
      ],
      "name": "Right"
    },
    {
      "mesh": 0,
      "name": "MBTI___-1.stl(F4E387E7-D926-4381-A8EB-6BDCA0F09DA0)"
    },
    { "children": [5], "name": "Layer 55" },
    {
      "mesh": 1,
      "name": "MBTI___-1.stl(48A0C672-A3CE-4B8A-A4C6-F6E5DD86F004)"
    },
    {
      "mesh": 2,
      "name": "MBTI___-1.stl(A432F352-8AAD-4DA3-AB38-AD8F793704CA)"
    },
    { "children": [7, 8], "name": "Layer 57" },
    {
      "mesh": 3,
      "name": "MBTI___-1.stl(B86B588B-DD8A-4589-8571-919F7F031C87)"
    },
    { "children": [10], "name": "Layer 58" },
    { "children": [6, 9, 11], "name": "ESFJ" },
    {
      "children": [12],
      "matrix": [
        1.0, 0.0, 0.0, 0.0, 0.0, 1.2246467991473532e-16, -0.9999999999999999,
        0.0, 0.0, 0.9999999999999999, 1.2246467991473532e-16, 0.0,
        -12458.716796875, 0.0, 15933.6328125, 1.0
      ],
      "name": "ESFJ"
    },
    { "children": [13], "name": "Default" },
    {
      "children": [14],
      "matrix": [
        0.001, 0.0, 0.0, 0.0, 0.0, 0.001, 0.0, 0.0, 0.0, 0.0, 0.001, 0.0, 0.0,
        0.0, 0.0, 1.0
      ],
      "name": "lux_root"
    }
  ],
  "samplers": [
    { "magFilter": 9729, "minFilter": 9987, "wrapS": 10497, "wrapT": 10497 },
    { "magFilter": 9729, "minFilter": 9987, "wrapS": 10497, "wrapT": 10497 },
    { "magFilter": 9729, "minFilter": 9987, "wrapS": 10497, "wrapT": 10497 },
    { "magFilter": 9729, "minFilter": 9987, "wrapS": 10497, "wrapT": 10497 }
  ],
  "scenes": [{ "nodes": [0, 1, 2, 3, 4, 15] }],
  "textures": [
    { "sampler": 0, "source": 0 },
    { "sampler": 1, "source": 1 },
    { "sampler": 2, "source": 2 },
    { "sampler": 3, "source": 3 }
  ]
}
