{
  "accessors": [
    {
      "bufferView": 0,
      "componentType": 5126,
      "count": 195900,
      "max": [-2129.494873046875, 16310.2177734375, 1223.8077392578125],
      "min": [-5416.46435546875, 14652.9853515625, -1768.0262451171875],
      "type": "VEC3"
    },
    { "bufferView": 1, "componentType": 5126, "count": 195900, "type": "VEC3" },
    { "bufferView": 2, "componentType": 5126, "count": 195900, "type": "VEC2" },
    {
      "bufferView": 3,
      "componentType": 5125,
      "count": 195900,
      "type": "SCALAR"
    },
    {
      "bufferView": 4,
      "componentType": 5126,
      "count": 44700,
      "max": [-3902.882568359375, 15147.16796875, 351.734130859375],
      "min": [-4135.14892578125, 14895.3662109375, 22.32210350036621],
      "type": "VEC3"
    },
    { "bufferView": 5, "componentType": 5126, "count": 44700, "type": "VEC3" },
    { "bufferView": 6, "componentType": 5126, "count": 44700, "type": "VEC2" },
    {
      "bufferView": 7,
      "componentType": 5125,
      "count": 44700,
      "type": "SCALAR"
    },
    {
      "bufferView": 8,
      "componentType": 5126,
      "count": 44700,
      "max": [-3582.016357421875, 15162.9326171875, 353.14959716796875],
      "min": [-3814.282470703125, 14911.130859375, 23.737581253051758],
      "type": "VEC3"
    },
    { "bufferView": 9, "componentType": 5126, "count": 44700, "type": "VEC3" },
    { "bufferView": 10, "componentType": 5126, "count": 44700, "type": "VEC2" },
    {
      "bufferView": 11,
      "componentType": 5125,
      "count": 44700,
      "type": "SCALAR"
    }
  ],
  "asset": { "generator": "Luxion KeyShot", "version": "2.0" },
  "bufferViews": [
    { "buffer": 0, "byteLength": 2350800, "byteOffset": 0, "byteStride": 12 },
    {
      "buffer": 0,
      "byteLength": 2350800,
      "byteOffset": 2350800,
      "byteStride": 12
    },
    {
      "buffer": 0,
      "byteLength": 1567200,
      "byteOffset": 4701600,
      "byteStride": 8
    },
    { "buffer": 0, "byteLength": 783600, "byteOffset": 6268800 },
    {
      "buffer": 0,
      "byteLength": 536400,
      "byteOffset": 7052400,
      "byteStride": 12
    },
    {
      "buffer": 0,
      "byteLength": 536400,
      "byteOffset": 7588800,
      "byteStride": 12
    },
    {
      "buffer": 0,
      "byteLength": 357600,
      "byteOffset": 8125200,
      "byteStride": 8
    },
    { "buffer": 0, "byteLength": 178800, "byteOffset": 8482800 },
    {
      "buffer": 0,
      "byteLength": 536400,
      "byteOffset": 8661600,
      "byteStride": 12
    },
    {
      "buffer": 0,
      "byteLength": 536400,
      "byteOffset": 9198000,
      "byteStride": 12
    },
    {
      "buffer": 0,
      "byteLength": 357600,
      "byteOffset": 9734400,
      "byteStride": 8
    },
    { "buffer": 0, "byteLength": 178800, "byteOffset": 10092000 }
  ],
  "buffers": [{ "byteLength": 10270800, "uri": "./ISTJ_resources/ISTJ.bin" }],
  "cameras": [
    {
      "name": "active",
      "perspective": {
        "aspectRatio": 1.0,
        "yfov": 0.6911154697478635,
        "zfar": 8761.8359375,
        "znear": 6632.595703125
      },
      "type": "perspective"
    },
    {
      "name": "Perspective",
      "perspective": {
        "aspectRatio": 1.0,
        "yfov": 1.1740917176586387,
        "zfar": 21462.16796875,
        "znear": 17300.046875
      },
      "type": "perspective"
    },
    {
      "name": "Top",
      "orthographic": {
        "xmag": 114.31099700927734,
        "ymag": 114.31099700927734,
        "zfar": 38710.12890625,
        "znear": 35718.29296875
      },
      "type": "orthographic"
    },
    {
      "name": "Front",
      "orthographic": {
        "xmag": 179.99899291992188,
        "ymag": 179.99899291992188,
        "zfar": 24860.44921875,
        "znear": 23203.21484375
      },
      "type": "orthographic"
    },
    {
      "name": "Right",
      "orthographic": {
        "xmag": 179.99899291992188,
        "ymag": 179.99899291992188,
        "zfar": 12032.423828125,
        "znear": 8745.455078125
      },
      "type": "orthographic"
    }
  ],
  "images": [
    { "uri": "./ISTJ_resources/MBTI___-1.stl_6_occlusion.png" },
    { "uri": "./ISTJ_resources/MBTI___-1.stl_9_occlusion.png" },
    { "uri": "./ISTJ_resources/MBTI___-1.stl_11_occlusion.png" }
  ],
  "materials": [
    {
      "doubleSided": true,
      "occlusionTexture": { "index": 0 },
      "pbrMetallicRoughness": {
        "baseColorFactor": [
          0.06358128786087036, 0.7613097429275513, 0.16341468691825867, 1.0
        ],
        "metallicFactor": 0.0,
        "roughnessFactor": 0.0
      }
    },
    {
      "doubleSided": true,
      "occlusionTexture": { "index": 1 },
      "pbrMetallicRoughness": {
        "baseColorFactor": [0.0, 0.0, 0.0, 1.0],
        "metallicFactor": 0.0,
        "roughnessFactor": 0.0
      }
    },
    {
      "doubleSided": true,
      "occlusionTexture": { "index": 2 },
      "pbrMetallicRoughness": {
        "baseColorFactor": [0.0, 0.0, 0.0, 1.0],
        "metallicFactor": 0.0,
        "roughnessFactor": 0.0
      }
    }
  ],
  "meshes": [
    {
      "name": "MBTI___-1.stl(817B0A9D-592A-4C6A-B173-B6AB8505A913)-mesh",
      "primitives": [
        {
          "attributes": { "NORMAL": 1, "POSITION": 0, "TEXCOORD_0": 2 },
          "indices": 3,
          "material": 0,
          "mode": 4
        }
      ]
    },
    {
      "name": "MBTI___-1.stl(A4124BCB-A933-48CF-ACE8-AABDF6171A4C)-mesh",
      "primitives": [
        {
          "attributes": { "NORMAL": 5, "POSITION": 4, "TEXCOORD_0": 6 },
          "indices": 7,
          "material": 1,
          "mode": 4
        }
      ]
    },
    {
      "name": "MBTI___-1.stl(B13EEDC6-B4D9-4068-8669-384A524FB516)-mesh",
      "primitives": [
        {
          "attributes": { "NORMAL": 9, "POSITION": 8, "TEXCOORD_0": 10 },
          "indices": 11,
          "material": 2,
          "mode": 4
        }
      ]
    }
  ],
  "nodes": [
    {
      "camera": 0,
      "matrix": [
        0.9999967382099113, -1.822824750412344e-7, -0.0025666774989364476, 0.0,
        -0.0004164731054654303, 0.9867363013658539, -0.16233111169029077, 0.0,
        0.0025326632894575596, 0.16233164072036743, 0.9867330193519592, 0.0,
        19.494335174560547, 977.3923950195313, 7595.0966796875, 1.0
      ],
      "name": "active"
    },
    {
      "camera": 1,
      "matrix": [
        0.7500041275117181, 5.3027497295965e-17, -0.4330023753206622, 0.0,
        -0.21650237914191653, 0.7499972483179491, -0.37500412752307566, 0.0,
        0.4330023753206622, 0.5000027516744787, 0.7500041275117182, 0.0,
        5289.99951171875, 2893.070068359374, 20677.12158203125, 1.0
      ],
      "name": "Perspective"
    },
    {
      "camera": 2,
      "matrix": [
        1.0, 0.0, 0.0, 0.0, 0.0, 1.2246467991473535e-16, -1.0, 0.0, 0.0, 1.0,
        1.2246467991473535e-16, 0.0, -11394.220703125, 36942.10156249999,
        2754.5019531250055, 1.0
      ],
      "name": "Top"
    },
    {
      "camera": 3,
      "matrix": [
        1.0, 0.0, 0.0, 0.0, 0.0, 1.0, 1.2246467991473535e-16, 0.0, 0.0,
        -1.2246467991473535e-16, 1.0, 0.0, 3772.9794921875,
        -1.047101237552686e-12, 24031.83203125, 1.0
      ],
      "name": "Front"
    },
    {
      "camera": 4,
      "matrix": [
        0.0, 1.2246467991473535e-16, -1.0, 0.0, 0.0, 1.0,
        1.2246467991473535e-16, 0.0, 1.0, 0.0, 0.0, 0.0, 10388.939453125, 0.0,
        15481.6015625, 1.0
      ],
      "name": "Right"
    },
    {
      "mesh": 0,
      "name": "MBTI___-1.stl(817B0A9D-592A-4C6A-B173-B6AB8505A913)"
    },
    { "children": [5], "name": "Layer 46" },
    {
      "mesh": 1,
      "name": "MBTI___-1.stl(A4124BCB-A933-48CF-ACE8-AABDF6171A4C)"
    },
    {
      "mesh": 2,
      "name": "MBTI___-1.stl(B13EEDC6-B4D9-4068-8669-384A524FB516)"
    },
    { "children": [7, 8], "name": "Layer 47" },
    { "children": [6, 9], "name": "ISTJ" },
    {
      "children": [10],
      "matrix": [
        1.0, 0.0, 0.0, 0.0, 0.0, 1.2246467991473532e-16, -0.9999999999999999,
        0.0, 0.0, 0.9999999999999999, 1.2246467991473532e-16, 0.0,
        3772.9794921875, 0.0, 15481.6015625, 1.0
      ],
      "name": "ISTJ"
    },
    { "children": [11], "name": "Default" },
    {
      "children": [12],
      "matrix": [
        0.001, 0.0, 0.0, 0.0, 0.0, 0.001, 0.0, 0.0, 0.0, 0.0, 0.001, 0.0, 0.0,
        0.0, 0.0, 1.0
      ],
      "name": "lux_root"
    }
  ],
  "samplers": [
    { "magFilter": 9729, "minFilter": 9987, "wrapS": 10497, "wrapT": 10497 },
    { "magFilter": 9729, "minFilter": 9987, "wrapS": 10497, "wrapT": 10497 },
    { "magFilter": 9729, "minFilter": 9987, "wrapS": 10497, "wrapT": 10497 }
  ],
  "scenes": [{ "nodes": [0, 1, 2, 3, 4, 13] }],
  "textures": [
    { "sampler": 0, "source": 0 },
    { "sampler": 1, "source": 1 },
    { "sampler": 2, "source": 2 }
  ]
}
